<?xml version="1.0" standalone="no"?>
<!DOCTYPE svg PUBLIC "-//W3C//DTD SVG 20010904//EN"
 "http://www.w3.org/TR/2001/REC-SVG-20010904/DTD/svg10.dtd">
<svg version="1.0" xmlns="http://www.w3.org/2000/svg"
 width="756.000000pt" height="756.000000pt" viewBox="0 0 756.000000 756.000000"
 preserveAspectRatio="xMidYMid meet">
<metadata>
Created by potrace 1.14, written by Peter Selinger 2001-2017
</metadata>
<g transform="translate(0.000000,756.000000) scale(0.100000,-0.100000)"
fill="#000000" stroke="none">
<path d="M6109 7075 l-466 -464 22 -21 c12 -11 24 -20 27 -20 3 0 215 209 471
465 438 439 463 466 450 485 -8 11 -20 20 -26 20 -7 0 -222 -209 -478 -465z"/>
<path d="M2955 6121 c-146 -41 -259 -113 -400 -256 -132 -134 -231 -273 -337
-474 -40 -75 -57 -102 -45 -69 25 70 27 302 3 405 -15 66 -46 145 -79 198 -33
54 -138 138 -187 150 -3 1 -12 5 -20 8 -46 21 -160 26 -580 25 -256 0 -469 -3
-475 -6 -5 -4 -19 -8 -30 -9 -37 -6 -121 -50 -149 -78 -37 -36 -57 -85 -57
-138 0 -62 12 -105 66 -232 7 -16 45 -109 85 -205 40 -96 83 -199 96 -228 13
-29 24 -55 24 -58 0 -3 9 -24 19 -47 11 -23 62 -141 114 -262 52 -121 104
-242 117 -270 12 -27 30 -68 40 -90 161 -366 244 -552 250 -560 4 -5 -25 -89
-65 -185 -39 -96 -95 -238 -124 -315 -29 -77 -55 -147 -58 -155 -18 -43 -17
-44 172 -44 l180 -1 24 60 c38 95 98 259 213 585 57 162 225 673 243 740 1 3
5 19 9 35 5 17 15 50 23 75 8 25 17 56 19 69 3 13 9 32 15 43 5 10 8 18 5 18
-20 0 107 301 214 506 69 133 175 306 191 312 5 2 9 10 9 17 0 7 3 15 8 17 4
2 25 26 47 53 116 144 292 274 411 301 69 15 169 15 206 0 158 -67 183 -333
78 -826 -33 -156 -93 -383 -141 -541 -12 -41 -24 -78 -25 -84 -11 -44 -118
-377 -207 -645 -68 -202 -81 -268 -75 -368 13 -189 153 -327 363 -358 56 -9
1014 -4 1043 5 17 5 32 8 32 6 0 -8 90 35 119 56 41 30 70 101 67 164 -4 83
-16 115 -166 450 -12 27 -23 54 -24 60 -1 5 -7 19 -13 30 -8 15 -154 352 -296
685 -6 14 -11 27 -11 30 -1 3 -4 10 -8 15 -3 6 -22 51 -42 100 -21 50 -43 104
-51 120 -78 174 -198 463 -196 475 11 87 -1 274 -24 372 -36 157 -144 277
-280 313 -16 5 -37 10 -45 13 -44 13 -239 8 -295 -7z m-1915 -82 c0 5 17 5 38
1 21 -3 47 -3 58 0 10 4 29 4 42 -1 12 -5 22 -5 22 0 0 5 18 5 39 1 22 -4 45
-4 52 0 6 4 25 4 40 0 16 -5 29 -5 29 -1 0 5 17 5 38 1 21 -3 47 -3 58 0 10 4
22 6 26 4 4 -3 40 -6 80 -8 40 -2 89 -10 109 -18 73 -31 125 -109 152 -227 14
-60 15 -285 2 -376 -4 -27 -8 -59 -10 -70 -1 -11 -8 -49 -15 -85 -7 -36 -14
-72 -15 -80 -1 -8 -5 -28 -8 -45 -4 -16 -9 -39 -12 -50 -9 -47 -66 -260 -99
-375 -38 -129 -194 -601 -218 -657 l-14 -32 -32 72 c-17 40 -72 164 -121 277
-49 113 -103 235 -120 273 -17 37 -31 70 -31 72 0 2 -11 28 -24 57 -21 46 -52
117 -102 236 -8 17 -21 47 -29 66 -32 72 -160 381 -232 556 -86 211 -94 262
-53 320 34 48 113 81 206 85 42 2 78 6 81 8 2 3 18 1 34 -3 16 -5 29 -5 29 -1z
m2630 -954 c39 -93 73 -174 74 -180 2 -5 13 -32 25 -60 13 -27 39 -88 58 -135
19 -47 46 -109 59 -138 13 -29 24 -55 24 -58 0 -3 9 -24 19 -47 11 -23 54
-123 96 -222 43 -99 85 -196 95 -215 10 -19 18 -38 19 -42 2 -8 27 -68 58
-138 12 -25 31 -67 43 -95 12 -27 32 -73 45 -100 56 -124 71 -201 50 -250 -25
-60 -78 -90 -180 -103 -77 -9 -786 -8 -844 3 -97 16 -162 58 -187 119 -16 40
-21 134 -9 186 4 14 8 39 11 55 3 17 48 156 100 310 96 283 213 652 219 691 2
12 8 31 14 43 7 11 10 21 7 21 -3 0 0 15 5 33 13 42 77 295 83 327 3 14 10 52
17 85 6 33 11 69 11 79 -2 36 16 1 88 -169z"/>
<path d="M5220 6125 c-107 -18 -251 -69 -335 -118 -155 -91 -319 -260 -400
-413 -14 -26 -30 -53 -36 -60 -6 -7 -12 -19 -13 -26 -1 -7 -9 -29 -19 -48 -35
-74 -78 -210 -101 -320 -36 -171 -41 -226 -41 -450 0 -172 5 -241 22 -315 2
-11 7 -33 9 -50 14 -77 87 -281 132 -370 15 -27 26 -52 27 -55 1 -7 42 -73 53
-86 5 -5 15 -21 22 -35 36 -68 190 -240 281 -314 43 -35 179 -125 179 -118 0
3 8 -1 18 -9 15 -13 46 -27 149 -70 15 -6 37 -13 48 -15 11 -2 31 -7 45 -12
132 -49 432 -58 568 -17 9 3 29 7 43 10 65 11 227 87 319 150 110 75 229 199
317 331 43 65 136 245 127 245 -4 0 0 10 8 23 18 28 69 195 84 272 2 11 6 31
9 45 2 14 7 45 11 70 3 25 8 59 11 75 6 41 7 385 1 410 -3 11 -9 43 -12 70 -4
28 -14 77 -23 110 -8 33 -16 67 -18 75 -2 8 -16 51 -33 95 -131 355 -364 629
-673 793 -112 60 -274 111 -404 129 -86 11 -303 10 -375 -2z m125 -169 c28 -4
75 -14 105 -22 30 -9 69 -19 86 -23 53 -14 196 -86 270 -137 284 -194 507
-517 632 -914 26 -83 38 -127 42 -152 1 -4 6 -22 11 -40 41 -143 59 -481 33
-633 -57 -339 -230 -555 -507 -636 -94 -28 -299 -35 -407 -14 -345 68 -628
304 -849 710 -82 150 -181 426 -207 575 -3 14 -7 32 -10 41 -2 9 -7 32 -9 50
-3 19 -11 77 -19 129 -13 95 -14 400 -1 470 16 89 50 192 87 269 87 177 256
302 445 327 26 3 49 7 50 8 6 5 202 -2 248 -8z"/>
<path d="M1750 2970 c-101 -17 -127 -23 -194 -47 -142 -50 -260 -125 -378
-238 -32 -31 -58 -58 -58 -61 0 -2 -11 -17 -24 -32 -35 -39 -96 -130 -96 -142
0 -5 -4 -10 -10 -10 -5 0 -10 -9 -10 -20 0 -11 -3 -20 -8 -20 -4 0 -13 -15
-21 -32 -8 -18 -25 -55 -37 -83 -21 -46 -62 -169 -80 -240 -4 -16 -8 -34 -10
-40 -7 -24 -34 -192 -41 -258 -10 -95 -10 -349 0 -412 5 -27 9 -57 9 -65 1
-37 52 -241 75 -300 4 -8 7 -17 8 -20 34 -99 140 -292 214 -390 75 -101 219
-250 241 -250 5 0 10 -4 10 -8 0 -11 142 -103 215 -140 51 -25 133 -57 170
-66 6 -2 17 -6 25 -9 13 -6 71 -19 140 -32 14 -3 75 -7 137 -10 61 -2 115 -5
120 -6 4 -1 10 0 13 1 3 1 16 3 30 5 138 14 261 50 377 108 230 117 435 341
547 597 16 36 32 69 37 74 5 6 9 19 9 31 0 12 5 26 12 33 7 7 8 12 4 12 -5 0
-3 7 4 15 7 8 9 15 5 15 -4 0 -2 6 4 13 6 8 13 31 17 53 3 21 8 42 11 47 2 4
6 19 9 32 2 14 6 37 9 53 3 15 8 42 11 61 3 18 8 43 11 55 12 49 11 413 -2
491 -29 176 -70 305 -145 460 -164 338 -449 601 -775 713 -67 23 -137 42 -175
48 -14 2 -36 6 -50 9 -40 10 -310 13 -360 5z m105 -174 c56 -7 120 -23 190
-48 60 -21 186 -77 195 -88 3 -3 16 -11 30 -18 79 -40 247 -189 325 -287 22
-27 48 -59 58 -69 9 -11 17 -23 17 -27 0 -4 6 -14 13 -21 26 -27 96 -147 150
-258 136 -281 208 -589 210 -895 1 -84 -10 -200 -23 -244 -5 -17 -7 -31 -5
-31 2 0 -2 -18 -10 -40 -8 -22 -12 -40 -8 -40 3 0 1 -6 -4 -13 -6 -6 -16 -30
-23 -52 -24 -72 -90 -180 -152 -246 -89 -95 -241 -174 -373 -195 -65 -10 -220
-11 -287 -3 -102 14 -238 58 -328 108 -25 13 -54 29 -65 35 -11 6 -22 13 -25
16 -3 3 -30 24 -60 46 -119 89 -235 216 -334 367 -90 138 -188 345 -226 477
-7 25 -16 54 -21 65 -14 35 -59 228 -65 280 -3 28 -7 53 -9 56 -18 28 -27 419
-12 514 51 336 233 550 517 608 62 13 232 14 325 3z"/>
<path d="M5570 2973 c-49 -8 -156 -47 -210 -76 -209 -111 -413 -347 -587 -677
-7 -14 -13 -31 -13 -37 0 -7 -5 -13 -11 -13 -6 0 -8 14 -4 38 7 41 17 142 17
157 -8 168 -32 278 -75 356 -28 49 -95 132 -117 145 -27 16 -115 58 -125 60
-91 21 -165 24 -550 23 -483 -1 -533 -5 -623 -54 -128 -70 -138 -185 -36 -420
39 -90 106 -259 104 -263 0 -1 6 -15 14 -30 8 -15 38 -83 67 -152 28 -69 65
-153 80 -188 16 -35 29 -65 29 -67 0 -3 12 -30 26 -62 32 -71 43 -95 89 -203
43 -100 55 -126 88 -200 13 -30 39 -89 57 -130 18 -41 46 -104 62 -140 17 -36
31 -71 31 -77 0 -7 4 -13 9 -13 4 0 7 -3 6 -7 -1 -9 5 -25 51 -126 l31 -69
-31 -71 c-16 -40 -34 -81 -39 -92 -5 -11 -35 -85 -65 -165 -30 -80 -60 -154
-65 -165 -5 -11 -19 -49 -31 -85 -12 -36 -26 -70 -31 -76 -4 -6 -5 -14 -1 -17
3 -4 88 -7 187 -7 l181 0 37 98 c20 53 69 187 108 297 39 110 74 207 77 215 4
8 7 17 8 20 0 3 12 37 25 75 13 39 25 72 25 75 1 3 5 12 8 20 19 45 188 568
193 597 1 7 11 41 22 75 18 56 37 124 48 168 24 101 235 560 283 614 9 10 14
20 12 23 -11 14 173 257 259 343 82 82 210 175 255 185 5 1 17 5 25 8 36 14
89 24 146 26 123 5 190 -50 224 -185 17 -67 19 -98 14 -223 -8 -190 -8 -191
-17 -191 -5 0 -6 -4 -3 -9 4 -5 -3 -56 -15 -113 -26 -131 -27 -136 -33 -156
-3 -9 -8 -31 -10 -48 -16 -89 -105 -405 -196 -689 -33 -104 -62 -197 -64 -205
-3 -8 -36 -110 -75 -225 -97 -291 -112 -376 -86 -497 21 -97 102 -196 199
-243 100 -49 143 -52 666 -52 524 -1 573 3 655 52 61 35 83 69 100 155 9 45
-21 138 -100 315 -7 17 -37 84 -65 150 -29 66 -63 144 -76 173 -13 29 -24 55
-24 57 0 3 -9 24 -19 48 -11 23 -54 123 -96 222 -43 99 -88 204 -101 233 -13
29 -24 54 -24 56 0 4 -176 421 -190 451 -38 80 -118 290 -113 297 11 19 1 244
-16 324 -50 247 -190 363 -446 369 -60 1 -121 0 -135 -2z m-1366 -101 c107
-31 174 -131 193 -287 11 -93 4 -300 -12 -365 -2 -8 -7 -40 -10 -70 -4 -30 -9
-58 -11 -61 -2 -4 -6 -24 -10 -45 -3 -22 -9 -55 -14 -74 -5 -19 -11 -46 -13
-60 -27 -154 -306 -1040 -327 -1040 -4 0 -22 35 -40 78 -19 42 -46 104 -61
137 -15 33 -48 110 -74 170 -26 61 -55 126 -63 145 -9 19 -16 37 -17 40 0 3
-8 21 -17 40 -33 74 -59 132 -147 340 -51 118 -98 229 -106 245 -7 17 -45 109
-84 205 -40 96 -76 183 -81 192 -6 10 -10 23 -10 30 0 7 -7 27 -16 43 -101
191 -61 300 123 338 78 16 741 15 797 -1z m1977 -812 c7 -22 17 -40 22 -40 6
0 8 -3 5 -6 -4 -3 2 -24 12 -47 10 -23 34 -80 53 -127 66 -159 318 -755 331
-785 31 -68 48 -108 116 -265 39 -91 81 -185 92 -210 74 -162 89 -203 94 -265
9 -101 -33 -145 -164 -168 -67 -12 -789 -16 -858 -4 -106 18 -176 64 -199 131
-8 24 -12 66 -9 110 3 63 9 111 14 111 1 0 3 11 6 25 4 23 77 257 91 290 3 8
7 20 9 25 2 6 27 82 58 170 30 88 69 207 86 265 17 58 34 112 37 120 3 8 7 20
8 25 2 6 12 42 23 80 35 116 119 465 132 543 7 39 16 70 21 67 4 -3 14 -24 20
-45z"/>
</g>
</svg>
